{"glyphs":{":":{"x_min":0,"x_max":166,"ha":166,"o":"m 120 330 l 46 330 l 46 416 l 120 416 z m 120 0 l 46 0 l 46 86 l 120 86 z"},"$":{"x_min":0,"x_max":415,"ha":415,"o":"m 356 59 q 356 4 280 4 q 272 4 257 4 q 242 5 236 5 l 236 -60 l 177 -60 l 177 5 q 171 5 156 4 q 142 4 134 4 q 58 4 58 59 l 58 248 l 126 248 l 126 62 l 177 62 l 177 377 l 80 497 q 58 524 58 555 l 58 705 q 58 760 134 760 q 142 760 156 760 q 171 759 177 759 l 177 824 l 236 824 l 236 759 q 242 759 257 760 q 272 760 280 760 q 356 760 356 705 l 356 532 l 288 532 l 288 702 l 236 702 l 236 407 l 334 288 q 356 261 356 231 z m 177 476 l 177 702 l 126 702 l 126 541 z m 288 62 l 288 245 l 236 308 l 236 62 z"},"?":{"x_min":0,"x_max":382,"ha":382,"o":"m 336 538 q 336 509 321 486 l 221 334 l 221 172 l 153 172 l 153 318 q 153 350 167 371 l 268 522 l 268 704 l 112 704 l 112 532 l 44 532 l 44 710 q 44 734 60 749 q 75 764 99 764 l 281 764 q 305 764 321 749 q 336 734 336 710 z m 224 0 l 150 0 l 150 86 l 224 86 z"},"<":{"x_min":0,"x_max":341,"ha":341,"o":"m 285 118 l 282 118 l 37 302 l 37 337 l 285 522 l 285 454 l 104 320 l 285 186 z"},"'":{"x_min":0,"x_max":166,"ha":166,"o":"m 119 764 l 104 524 l 62 524 l 47 764 z"},"=":{"x_min":0,"x_max":441,"ha":441,"o":"m 391 369 l 50 369 l 50 428 l 391 428 z m 391 191 l 50 191 l 50 249 l 391 249 z"},"a":{"x_min":0,"x_max":375,"ha":375,"o":"m 322 0 l 258 0 l 258 13 q 219 8 181 3 q 133 -3 104 -3 q 51 -3 51 50 l 51 223 q 51 278 106 278 l 259 278 l 259 421 l 119 421 l 119 340 l 56 340 l 56 420 q 56 475 111 475 l 267 475 q 322 475 322 420 z m 259 59 l 259 227 l 114 227 l 114 56 z"},"L":{"x_min":0,"x_max":337,"ha":337,"o":"m 305 0 l 61 0 l 61 764 l 129 764 l 129 60 l 305 60 z"},"3":{"x_min":0,"x_max":422,"ha":422,"o":"m 366 54 q 366 30 351 15 q 336 0 312 0 l 115 0 q 91 0 76 15 q 61 30 61 54 l 61 248 l 129 248 l 129 60 l 298 60 l 298 294 l 163 395 l 163 410 l 297 510 l 297 704 l 130 704 l 130 532 l 62 532 l 62 710 q 62 734 77 749 q 92 764 116 764 l 311 764 q 335 764 350 749 q 365 734 365 710 l 365 524 q 365 487 336 467 l 245 403 l 337 339 q 366 319 366 281 z"},";":{"x_min":0,"x_max":166,"ha":166,"o":"m 120 330 l 46 330 l 46 416 l 120 416 z m 123 86 l 79 -54 l 32 -54 l 46 86 z"},"J":{"x_min":0,"x_max":391,"ha":391,"o":"m 330 54 q 330 30 315 15 q 300 0 276 0 l 98 0 q 74 0 59 15 q 44 30 44 54 l 44 248 l 112 248 l 112 60 l 262 60 l 262 764 l 330 764 z"},"V":{"x_min":0,"x_max":390,"ha":390,"o":"m 359 764 l 227 -2 l 163 -2 l 31 764 l 98 764 l 193 156 q 193 156 196 106 q 196 123 199 156 l 294 764 z"},"\"":{"x_min":0,"x_max":307,"ha":307,"o":"m 259 764 l 245 524 l 202 524 l 188 764 z m 119 764 l 104 524 l 62 524 l 47 764 z"},"7":{"x_min":0,"x_max":363,"ha":363,"o":"m 338 729 l 174 0 l 107 0 l 266 704 l 103 704 l 103 592 l 35 592 l 35 764 l 338 764 q 338 729 338 729 z"},"S":{"x_min":0,"x_max":418,"ha":418,"o":"m 359 54 q 359 30 344 15 q 329 0 305 0 l 113 0 q 89 0 73 15 q 58 30 58 54 l 58 248 l 126 248 l 126 60 l 291 60 l 291 242 l 80 497 q 58 523 58 555 l 58 710 q 58 734 73 749 q 89 764 113 764 l 305 764 q 329 764 344 749 q 359 734 359 710 l 359 532 l 291 532 l 291 704 l 126 704 l 126 543 l 338 288 q 359 263 359 231 z"},"}":{"x_min":0,"x_max":341,"ha":341,"o":"m 310 330 l 228 254 l 228 -21 q 228 -64 199 -93 q 171 -121 128 -121 l 43 -121 l 43 -62 q 49 -62 66 -63 q 82 -63 91 -63 q 160 -63 160 -13 l 160 245 q 160 275 184 298 q 208 318 233 337 q 208 356 184 375 q 160 399 160 429 l 160 656 q 160 707 91 707 q 82 707 66 706 q 49 705 43 705 l 43 764 l 128 764 q 171 764 199 736 q 228 707 228 664 l 228 420 l 310 344 z"},"Z":{"x_min":0,"x_max":344,"ha":344,"o":"m 317 0 l 24 0 q 24 36 24 36 l 239 704 l 45 704 l 45 764 l 317 764 q 317 729 317 729 l 102 60 l 317 60 z"},"x":{"x_min":0,"x_max":331,"ha":331,"o":"m 311 0 l 245 0 l 165 188 l 84 0 l 20 0 l 20 2 l 131 244 l 27 475 l 93 475 l 166 301 l 241 475 l 304 475 l 304 473 l 200 246 z"},")":{"x_min":0,"x_max":263,"ha":263,"o":"m 212 333 q 212 99 91 -98 l 33 -98 l 33 -93 q 93 15 118 112 q 145 212 145 333 q 145 454 118 554 q 93 651 33 759 l 33 764 l 91 764 q 212 567 212 333 z"},"&":{"x_min":0,"x_max":435,"ha":435,"o":"m 415 369 l 359 369 l 359 0 l 112 0 q 88 0 73 15 q 58 30 58 54 l 58 314 q 58 347 83 363 l 140 400 q 113 416 87 432 q 60 453 60 483 l 60 710 q 60 734 75 749 q 90 764 114 764 l 307 764 q 331 764 346 749 q 362 734 362 710 l 362 550 l 294 550 l 294 704 l 127 704 l 127 474 l 196 428 l 415 428 z m 292 60 l 292 369 l 195 369 l 125 324 l 125 60 z"},"_":{"x_min":0,"x_max":361,"ha":361,"o":"m 361 -200 l 0 -200 l 0 -146 l 361 -146 z"},"v":{"x_min":0,"x_max":347,"ha":347,"o":"m 321 475 l 203 -1 l 144 -1 l 26 475 l 93 475 l 174 101 l 256 475 z"},"O":{"x_min":0,"x_max":445,"ha":445,"o":"m 384 54 q 384 30 368 15 q 353 0 329 0 l 115 0 q 91 0 76 15 q 61 30 61 54 l 61 710 q 61 734 76 749 q 91 764 115 764 l 329 764 q 353 764 368 749 q 384 734 384 710 z m 316 60 l 316 704 l 129 704 l 129 60 z"},"(":{"x_min":0,"x_max":263,"ha":263,"o":"m 231 -98 l 172 -98 q 51 99 51 333 q 51 567 172 764 l 231 764 l 231 759 q 171 651 146 554 q 119 454 119 333 q 119 212 146 112 q 171 15 231 -93 z"},"C":{"x_min":0,"x_max":425,"ha":425,"o":"m 367 54 q 367 30 352 15 q 336 0 312 0 l 115 0 q 91 0 76 15 q 61 30 61 54 l 61 710 q 61 734 76 749 q 91 764 115 764 l 312 764 q 336 764 352 749 q 367 734 367 710 l 367 532 l 299 532 l 299 704 l 129 704 l 129 60 l 299 60 l 299 248 l 367 248 z"},"W":{"x_min":0,"x_max":548,"ha":548,"o":"m 518 764 l 414 -2 l 359 -2 l 276 574 q 275 589 274 619 q 274 604 272 574 l 189 -2 l 134 -2 l 30 764 l 97 764 l 162 213 q 163 194 164 158 q 164 177 166 213 l 245 764 l 303 764 l 382 213 q 383 194 384 158 q 384 177 386 213 l 451 764 z"},"A":{"x_min":0,"x_max":400,"ha":400,"o":"m 369 0 l 302 0 l 275 170 l 123 170 l 96 0 l 31 0 l 31 2 l 167 766 l 234 766 z m 266 230 l 199 644 l 132 230 z"},"f":{"x_min":0,"x_max":238,"ha":238,"o":"m 233 707 l 141 707 l 141 475 l 222 475 l 222 418 l 141 418 l 141 0 l 77 0 l 77 418 l 22 418 l 22 475 l 77 475 l 77 709 q 77 764 132 764 l 233 764 z"},"Q":{"x_min":0,"x_max":450,"ha":450,"o":"m 436 -1 l 430 -1 l 380 40 q 371 0 330 0 l 115 0 q 91 0 76 15 q 61 30 61 54 l 61 710 q 61 734 76 749 q 91 764 115 764 l 330 764 q 354 764 369 749 q 384 734 384 710 l 384 108 l 436 66 z m 316 60 l 316 90 l 235 157 l 235 224 l 241 224 l 316 162 l 316 704 l 129 704 l 129 60 z"},"w":{"x_min":0,"x_max":505,"ha":505,"o":"m 478 475 l 380 -1 l 322 -1 l 252 360 l 182 -1 l 125 -1 l 27 475 l 88 475 l 155 109 l 224 475 l 281 475 l 350 109 l 417 475 z"},"-":{"x_min":0,"x_max":295,"ha":295,"o":"m 248 261 l 47 261 l 47 322 l 248 322 z"},"E":{"x_min":0,"x_max":357,"ha":357,"o":"m 312 0 l 61 0 l 61 764 l 309 764 l 309 704 l 129 704 l 129 419 l 293 419 l 293 358 l 129 358 l 129 60 l 312 60 z"},"s":{"x_min":0,"x_max":359,"ha":359,"o":"m 309 55 q 309 0 254 0 l 105 0 q 50 0 50 55 l 50 163 l 114 163 l 114 56 l 245 56 l 245 151 l 75 290 q 51 310 51 341 l 51 420 q 51 475 106 475 l 253 475 q 308 475 308 420 l 308 325 l 245 325 l 245 419 l 114 419 l 114 336 l 285 197 q 309 178 309 145 z"},">":{"x_min":0,"x_max":341,"ha":341,"o":"m 304 302 l 56 118 l 56 186 l 237 320 l 56 454 l 56 522 l 60 522 l 304 337 z"},"l":{"x_min":0,"x_max":178,"ha":178,"o":"m 121 0 l 57 0 l 57 764 l 121 764 z"},"8":{"x_min":0,"x_max":431,"ha":431,"o":"m 369 54 q 369 30 354 15 q 338 0 314 0 l 113 0 q 89 0 74 15 q 59 30 59 54 l 59 303 q 59 336 84 352 l 158 400 l 86 445 q 61 460 61 494 l 61 710 q 61 734 76 749 q 91 764 115 764 l 313 764 q 337 764 352 749 q 367 734 367 710 l 367 494 q 367 460 342 445 l 270 400 l 343 352 q 369 335 369 303 z m 299 485 l 299 704 l 129 704 l 129 485 l 214 428 z m 301 60 l 301 313 l 214 370 l 127 313 l 127 60 z"},"\\":{"x_min":0,"x_max":432,"ha":432,"o":"m 410 0 l 345 0 l 22 764 l 87 764 z"},"e":{"x_min":0,"x_max":373,"ha":373,"o":"m 319 55 q 319 0 264 0 l 108 0 q 53 0 53 55 l 53 420 q 53 475 108 475 l 264 475 q 319 475 319 420 l 319 249 l 297 226 l 116 226 l 116 54 l 256 54 l 256 141 l 319 141 z m 256 278 l 256 421 l 116 421 l 116 278 z"},"b":{"x_min":0,"x_max":379,"ha":379,"o":"m 326 102 q 326 58 297 29 q 269 0 225 0 l 53 0 l 53 764 l 118 764 l 118 462 q 157 467 195 472 q 244 478 272 478 q 326 478 326 425 z m 261 112 l 261 417 l 118 413 l 118 57 l 208 57 q 261 57 261 112 z"},"%":{"x_min":0,"x_max":670,"ha":670,"o":"m 565 760 l 145 0 l 89 0 l 89 4 l 509 764 l 565 764 z m 627 50 q 627 29 613 15 q 599 0 579 0 l 437 0 q 419 0 405 16 q 390 32 390 50 l 390 338 q 390 356 405 372 q 419 389 437 389 l 579 389 q 598 389 613 373 q 627 357 627 338 z m 568 55 l 568 332 l 449 332 l 449 55 z m 266 425 q 266 405 252 390 q 238 375 218 375 l 76 375 q 58 375 44 391 q 29 407 29 425 l 29 714 q 29 731 44 748 q 59 764 76 764 l 218 764 q 237 764 252 749 q 266 733 266 714 z m 207 430 l 207 707 l 88 707 l 88 430 z"},"m":{"x_min":0,"x_max":583,"ha":583,"o":"m 531 0 l 466 0 l 466 417 l 324 413 l 324 0 l 260 0 l 260 417 l 118 413 l 118 0 l 53 0 l 53 475 l 118 475 l 118 462 q 156 467 194 472 q 241 478 271 478 q 301 478 315 460 q 356 465 396 471 q 450 478 477 478 q 531 478 531 425 z"},"#":{"x_min":0,"x_max":521,"ha":521,"o":"m 496 499 l 401 499 l 360 265 l 461 265 l 461 209 l 350 209 l 313 0 l 251 0 l 289 209 l 171 209 l 135 0 l 73 0 l 110 209 l 25 209 l 25 265 l 120 265 l 161 499 l 60 499 l 60 555 l 171 555 l 208 764 l 270 764 l 232 555 l 350 555 l 386 764 l 448 764 l 411 555 l 496 555 z m 340 499 l 222 499 l 181 265 l 298 265 z"},",":{"x_min":0,"x_max":166,"ha":166,"o":"m 130 86 l 87 -54 l 40 -54 l 54 86 z"},"n":{"x_min":0,"x_max":378,"ha":378,"o":"m 326 0 l 261 0 l 261 417 l 118 413 l 118 0 l 53 0 l 53 475 l 118 475 l 118 462 q 156 467 195 472 q 242 478 272 478 q 326 478 326 425 z"},"h":{"x_min":0,"x_max":378,"ha":378,"o":"m 326 0 l 261 0 l 261 417 l 118 413 l 118 0 l 53 0 l 53 764 l 118 764 l 118 462 q 157 467 195 472 q 244 478 272 478 q 326 478 326 425 z"},"z":{"x_min":0,"x_max":320,"ha":320,"o":"m 281 0 l 31 0 l 31 30 l 204 417 l 49 417 l 49 475 l 281 475 l 281 445 l 107 58 l 281 58 z"},"B":{"x_min":0,"x_max":425,"ha":425,"o":"m 367 54 q 367 30 352 15 q 337 0 313 0 l 61 0 l 61 764 l 311 764 q 335 764 350 749 q 365 734 365 710 l 365 483 q 365 453 338 432 q 311 416 284 400 l 342 363 q 367 347 367 314 z m 297 474 l 297 704 l 129 704 l 129 428 l 229 428 z m 299 60 l 299 324 l 230 369 l 129 369 l 129 60 z"},"K":{"x_min":0,"x_max":385,"ha":385,"o":"m 380 0 l 305 0 l 129 367 l 129 0 l 61 0 l 61 764 l 129 764 l 129 421 l 289 764 l 363 764 l 363 760 l 190 396 z"},"R":{"x_min":0,"x_max":427,"ha":427,"o":"m 386 0 l 315 0 l 173 409 l 182 423 l 303 423 l 303 704 l 129 704 l 129 0 l 61 0 l 61 764 l 317 764 q 341 764 356 749 q 371 734 371 710 l 371 420 q 371 365 297 365 q 290 365 275 365 q 261 366 255 366 q 321 184 386 0 z"},"T":{"x_min":0,"x_max":343,"ha":343,"o":"m 324 704 l 206 704 l 206 0 l 138 0 l 138 704 l 19 704 l 19 764 l 324 764 z"},"P":{"x_min":0,"x_max":410,"ha":410,"o":"m 364 358 q 364 334 348 319 q 333 303 309 303 l 129 303 l 129 0 l 61 0 l 61 764 l 309 764 q 333 764 348 749 q 364 734 364 710 z m 296 364 l 296 704 l 129 704 l 129 364 z"},"|":{"x_min":0,"x_max":204,"ha":204,"o":"m 133 -167 l 71 -167 l 71 764 l 133 764 z"},"t":{"x_min":0,"x_max":254,"ha":254,"o":"m 224 0 l 132 0 q 77 0 77 55 l 77 418 l 20 418 l 20 475 l 77 475 l 77 623 l 141 623 l 141 475 l 224 475 l 224 418 l 141 418 l 141 57 l 224 57 z"},"M":{"x_min":0,"x_max":500,"ha":500,"o":"m 439 0 l 375 0 l 375 484 q 375 494 382 544 l 257 72 l 243 72 l 118 544 q 125 494 125 484 l 125 0 l 61 0 l 61 764 l 124 764 l 248 267 q 249 263 250 245 q 250 252 252 267 l 376 764 l 439 764 z"},"g":{"x_min":0,"x_max":377,"ha":377,"o":"m 323 -125 q 323 -180 268 -180 l 114 -180 q 58 -180 58 -110 q 58 -102 58 -86 q 59 -69 59 -62 l 123 -62 l 123 -125 l 259 -125 l 259 0 l 152 0 q 108 0 80 29 q 51 58 51 102 l 51 380 q 51 422 76 450 q 102 478 143 478 q 154 478 259 462 l 259 475 l 323 475 z m 259 57 l 259 416 q 182 421 169 421 q 115 421 115 366 l 115 112 q 115 57 169 57 z"},"j":{"x_min":0,"x_max":178,"ha":178,"o":"m 122 579 l 56 579 l 56 661 l 122 661 z m 121 -125 q 121 -180 66 -180 l -15 -180 l -15 -123 l 57 -123 l 57 475 l 121 475 z"},"i":{"x_min":0,"x_max":178,"ha":178,"o":"m 122 579 l 56 579 l 56 661 l 122 661 z m 121 0 l 57 0 l 57 475 l 121 475 z"},"y":{"x_min":0,"x_max":347,"ha":347,"o":"m 321 475 l 207 4 l 159 -180 l 95 -180 l 143 4 l 26 475 l 93 475 l 174 101 l 256 475 z"},"@":{"x_min":0,"x_max":564,"ha":564,"o":"m 503 0 l 93 0 q 61 0 61 32 l 61 732 q 61 764 93 764 l 471 764 q 503 764 503 732 l 503 201 q 503 169 471 169 l 223 169 q 188 169 188 203 l 188 383 q 188 418 223 418 l 325 418 l 325 554 l 241 554 l 241 474 l 192 474 l 192 564 q 192 599 227 599 l 339 599 q 374 599 374 564 l 374 206 l 466 206 l 466 730 l 98 730 l 98 34 l 503 34 z m 325 213 l 325 374 l 238 374 l 238 213 z"},".":{"x_min":0,"x_max":166,"ha":166,"o":"m 120 0 l 46 0 l 46 86 l 120 86 z"},"p":{"x_min":0,"x_max":377,"ha":377,"o":"m 326 102 q 326 58 297 29 q 269 0 225 0 l 118 0 l 118 -180 l 53 -180 l 53 475 l 118 475 l 118 462 q 157 467 195 472 q 244 478 272 478 q 326 478 326 425 z m 261 112 l 261 417 l 118 413 l 118 57 l 208 57 q 261 57 261 112 z"},"X":{"x_min":0,"x_max":384,"ha":384,"o":"m 363 0 l 293 0 l 191 314 l 89 0 l 21 0 q 21 3 21 4 l 157 391 q 28 762 29 764 l 100 764 l 192 474 l 287 764 l 355 764 q 355 761 355 760 l 228 395 q 364 2 363 0 z"},"*":{"x_min":0,"x_max":397,"ha":397,"o":"m 349 558 l 317 505 l 216 580 l 228 453 l 168 453 l 181 580 l 79 505 l 48 558 l 165 608 l 48 659 l 79 711 l 181 637 l 168 764 l 228 764 l 216 637 l 317 711 l 349 659 l 232 608 z"},"Y":{"x_min":0,"x_max":390,"ha":390,"o":"m 368 760 l 275 451 q 258 404 229 296 l 229 0 l 161 0 l 161 296 q 154 333 140 374 q 117 444 115 451 l 22 760 q 22 760 22 764 l 91 764 l 196 382 l 300 764 l 368 764 q 368 761 368 760 z"},"c":{"x_min":0,"x_max":369,"ha":369,"o":"m 317 55 q 317 0 262 0 l 108 0 q 53 0 53 55 l 53 420 q 53 475 108 475 l 262 475 q 317 475 317 420 l 317 325 l 253 325 l 253 418 l 118 418 l 118 57 l 253 57 l 253 163 l 317 163 z"},"!":{"x_min":0,"x_max":199,"ha":199,"o":"m 137 764 l 122 172 l 77 172 l 62 764 z m 136 0 l 63 0 l 63 86 l 136 86 z"},"/":{"x_min":0,"x_max":432,"ha":432,"o":"m 410 760 l 87 0 l 22 0 l 22 4 l 345 764 l 410 764 z"},"[":{"x_min":0,"x_max":290,"ha":290,"o":"m 247 -121 l 117 -121 q 93 -121 78 -106 q 63 -91 63 -67 l 63 710 q 63 734 78 749 q 93 764 117 764 l 247 764 l 247 704 l 131 704 l 131 -61 l 247 -61 z"},"6":{"x_min":0,"x_max":424,"ha":424,"o":"m 364 54 q 364 30 349 15 q 334 0 310 0 l 115 0 q 91 0 76 15 q 61 30 61 54 l 61 710 q 61 734 76 749 q 91 764 115 764 l 308 764 q 332 764 347 749 q 362 734 362 710 l 362 541 l 294 541 l 294 704 l 129 704 l 129 421 l 310 421 q 334 421 349 406 q 364 391 364 367 z m 296 60 l 296 362 l 129 362 l 129 60 z"},"r":{"x_min":0,"x_max":331,"ha":331,"o":"m 302 319 l 238 319 l 238 417 l 118 413 l 118 0 l 53 0 l 53 475 l 118 475 l 118 462 q 150 467 183 472 q 222 478 248 478 q 302 478 302 425 z"},"2":{"x_min":0,"x_max":390,"ha":390,"o":"m 345 0 l 42 0 l 42 36 l 276 522 l 276 704 l 120 704 l 120 532 l 52 532 l 52 710 q 52 734 67 749 q 82 764 106 764 l 290 764 q 314 764 329 749 q 344 734 344 710 l 344 548 q 344 519 326 481 l 124 60 l 345 60 z"},"{":{"x_min":0,"x_max":341,"ha":341,"o":"m 298 -121 l 213 -121 q 169 -121 141 -93 q 113 -64 113 -21 l 113 254 l 31 330 l 31 344 l 113 420 l 113 664 q 113 708 141 736 q 169 764 213 764 l 298 764 l 298 705 q 292 705 275 706 q 259 707 250 707 q 181 707 181 656 l 181 429 q 181 399 157 375 q 132 356 108 337 q 132 318 157 298 q 181 275 181 245 l 181 -13 q 181 -63 250 -63 q 259 -63 275 -63 q 292 -62 298 -62 z"},"9":{"x_min":0,"x_max":424,"ha":424,"o":"m 361 54 q 361 30 346 15 q 331 0 307 0 l 116 0 q 92 0 77 15 q 61 30 61 54 l 61 223 l 129 223 l 129 60 l 293 60 l 293 343 l 112 343 q 88 343 73 358 q 58 373 58 397 l 58 710 q 58 734 73 749 q 88 764 112 764 l 307 764 q 331 764 346 749 q 361 734 361 710 z m 293 402 l 293 704 l 126 704 l 126 402 z"}," ":{"x_min":0,"x_max":196,"ha":196,"o":""},"I":{"x_min":0,"x_max":199,"ha":199,"o":"m 133 0 l 65 0 l 65 764 l 133 764 z"},"H":{"x_min":0,"x_max":442,"ha":442,"o":"m 381 0 l 313 0 l 313 367 l 129 367 l 129 0 l 61 0 l 61 764 l 129 764 l 129 428 l 313 428 l 313 764 l 381 764 z"},"4":{"x_min":0,"x_max":383,"ha":383,"o":"m 359 199 l 301 199 l 301 0 l 237 0 l 237 199 l 21 199 l 21 234 l 206 764 l 270 764 q 270 761 270 761 l 94 257 l 237 257 l 237 534 l 301 534 l 301 257 l 359 257 z"},"~":{"x_min":0,"x_max":505,"ha":505,"o":"m 422 266 q 422 224 382 224 q 357 224 331 234 l 147 304 l 147 227 l 83 227 l 83 329 q 83 371 123 371 q 148 371 174 361 l 358 291 l 358 368 l 422 368 z"},"D":{"x_min":0,"x_max":434,"ha":434,"o":"m 376 138 q 376 78 336 39 q 296 0 236 0 l 61 0 l 61 764 l 236 764 q 297 764 336 725 q 376 687 376 626 z m 308 145 l 308 620 q 308 658 284 681 q 261 704 223 704 l 129 704 l 129 60 l 219 60 q 259 60 283 83 q 308 105 308 145 z"},"^":{"x_min":0,"x_max":400,"ha":400,"o":"m 353 494 l 298 494 l 199 683 l 100 494 l 47 494 l 47 498 l 175 764 l 226 764 z"},"0":{"x_min":0,"x_max":434,"ha":434,"o":"m 373 54 q 373 30 357 15 q 342 0 318 0 l 115 0 q 91 0 76 15 q 61 30 61 54 l 61 710 q 61 734 76 749 q 91 764 115 764 l 318 764 q 342 764 357 749 q 373 734 373 710 z m 305 60 l 305 704 l 129 704 l 129 60 z"},"F":{"x_min":0,"x_max":340,"ha":340,"o":"m 307 704 l 129 704 l 129 414 l 293 414 l 293 353 l 129 353 l 129 0 l 61 0 l 61 764 l 307 764 z"},"`":{"x_min":0,"x_max":400,"ha":400,"o":"m 306 517 l 261 517 l 141 630 l 141 632 l 233 632 l 306 520 z"},"k":{"x_min":0,"x_max":335,"ha":335,"o":"m 320 0 l 249 0 l 118 242 l 118 0 l 53 0 l 53 764 l 118 764 l 118 279 l 240 475 l 310 475 l 310 473 l 172 263 z"},"u":{"x_min":0,"x_max":378,"ha":378,"o":"m 325 0 l 261 0 l 261 13 q 222 8 184 3 q 137 -3 106 -3 q 53 -3 53 50 l 53 475 l 117 475 l 117 58 l 261 62 l 261 475 l 325 475 z"},"]":{"x_min":0,"x_max":290,"ha":290,"o":"m 228 -67 q 228 -91 212 -106 q 197 -121 173 -121 l 43 -121 l 43 -61 l 160 -61 l 160 704 l 43 704 l 43 764 l 173 764 q 197 764 212 749 q 228 734 228 710 z"},"U":{"x_min":0,"x_max":439,"ha":439,"o":"m 378 54 q 378 30 363 15 q 347 0 323 0 l 115 0 q 91 0 76 15 q 61 30 61 54 l 61 764 l 129 764 l 129 60 l 310 60 l 310 764 l 378 764 z"},"o":{"x_min":0,"x_max":379,"ha":379,"o":"m 326 55 q 326 0 271 0 l 108 0 q 53 0 53 55 l 53 420 q 53 475 108 475 l 271 475 q 326 475 326 420 z m 261 57 l 261 418 l 118 418 l 118 57 z"},"N":{"x_min":0,"x_max":437,"ha":437,"o":"m 376 0 l 329 0 l 125 562 l 125 0 l 61 0 l 61 764 l 112 764 l 312 212 l 312 764 l 376 764 z"},"+":{"x_min":0,"x_max":409,"ha":409,"o":"m 375 307 l 235 307 l 235 169 l 175 169 l 175 307 l 34 307 l 34 364 l 175 364 l 175 502 l 235 502 l 235 364 l 375 364 z"},"G":{"x_min":0,"x_max":430,"ha":430,"o":"m 370 54 q 370 30 355 15 q 340 0 316 0 l 115 0 q 91 0 76 15 q 61 30 61 54 l 61 710 q 61 734 76 749 q 91 764 115 764 l 316 764 q 340 764 355 749 q 370 734 370 710 l 370 532 l 302 532 l 302 704 l 129 704 l 129 60 l 302 60 l 302 324 l 220 324 l 220 383 l 370 383 z"},"q":{"x_min":0,"x_max":377,"ha":377,"o":"m 323 -180 l 259 -180 l 259 0 l 152 0 q 108 0 80 29 q 51 58 51 102 l 51 380 q 51 422 76 450 q 102 478 143 478 q 154 478 259 462 l 259 475 l 323 475 z m 259 57 l 259 416 q 182 421 169 421 q 115 421 115 366 l 115 112 q 115 57 169 57 z"},"d":{"x_min":0,"x_max":377,"ha":377,"o":"m 323 0 l 259 0 l 259 13 q 154 -3 143 -3 q 102 -3 76 25 q 51 53 51 95 l 51 373 q 51 417 80 446 q 108 475 152 475 l 259 475 l 259 764 l 323 764 z m 259 59 l 259 418 l 169 418 q 115 418 115 363 l 115 109 q 115 54 169 54 q 182 54 259 59 z"},"1":{"x_min":0,"x_max":203,"ha":203,"o":"m 137 0 l 69 0 l 69 530 l 39 530 l 39 532 l 82 764 l 137 764 z"},"5":{"x_min":0,"x_max":411,"ha":411,"o":"m 355 54 q 355 30 340 15 q 325 0 301 0 l 113 0 q 89 0 74 15 q 59 30 59 54 l 59 248 l 127 248 l 127 60 l 287 60 l 287 420 l 61 420 l 70 764 l 349 764 l 349 704 l 136 704 l 128 480 l 301 480 q 325 480 340 465 q 355 450 355 426 z"}}}
